<mxfile host="app.diagrams.net" modified="2022-05-20T18:45:39.198Z" agent="5.0 (Windows NT 10.0; Win64; x64) AppleWebKit/537.36 (KHTML, like Gecko) Chrome/101.0.0.0 Safari/537.36" etag="Sxl51HYIsO8tTjWFCy4B" version="18.0.2" type="github">
  <diagram id="BOuTmNfAIhmqwVxighDf" name="Page-1">
    <mxGraphModel dx="778" dy="836" grid="1" gridSize="10" guides="1" tooltips="1" connect="1" arrows="1" fold="1" page="1" pageScale="1" pageWidth="1100" pageHeight="1700" math="0" shadow="0">
      <root>
        <mxCell id="0" />
        <mxCell id="1" parent="0" />
        <mxCell id="PTytaODisuTL6KH7mFgd-1" value="&lt;font style=&quot;font-size: 18px&quot;&gt;&lt;b&gt;Departments&lt;/b&gt;&lt;/font&gt;" style="rounded=0;whiteSpace=wrap;html=1;" parent="1" vertex="1">
          <mxGeometry x="290" y="420" width="120" height="100" as="geometry" />
        </mxCell>
        <mxCell id="PTytaODisuTL6KH7mFgd-2" value="Manages" style="rhombus;whiteSpace=wrap;html=1;fontSize=18;" parent="1" vertex="1">
          <mxGeometry x="460" y="550" width="120" height="50" as="geometry" />
        </mxCell>
        <mxCell id="PTytaODisuTL6KH7mFgd-3" value="&lt;font style=&quot;font-size: 18px&quot;&gt;&lt;b&gt;Employees&lt;/b&gt;&lt;/font&gt;" style="rounded=0;whiteSpace=wrap;html=1;" parent="1" vertex="1">
          <mxGeometry x="290" y="660" width="120" height="100" as="geometry" />
        </mxCell>
        <mxCell id="PTytaODisuTL6KH7mFgd-20" value="" style="endArrow=classic;html=1;rounded=0;fontSize=16;exitX=0.5;exitY=0;exitDx=0;exitDy=0;startArrow=none;entryX=0.5;entryY=1;entryDx=0;entryDy=0;" parent="1" source="Kkhly3-3A6-hrjqrPT-v-7" target="PTytaODisuTL6KH7mFgd-25" edge="1">
          <mxGeometry width="50" height="50" relative="1" as="geometry">
            <mxPoint x="400" y="610" as="sourcePoint" />
            <mxPoint x="350" y="360" as="targetPoint" />
          </mxGeometry>
        </mxCell>
        <mxCell id="PTytaODisuTL6KH7mFgd-22" value="" style="endArrow=classic;html=1;rounded=0;entryX=1;entryY=0.5;entryDx=0;entryDy=0;" parent="1" source="PTytaODisuTL6KH7mFgd-2" edge="1" target="PTytaODisuTL6KH7mFgd-1">
          <mxGeometry width="50" height="50" relative="1" as="geometry">
            <mxPoint x="450" y="600" as="sourcePoint" />
            <mxPoint x="410" y="435" as="targetPoint" />
            <Array as="points">
              <mxPoint x="520" y="470" />
            </Array>
          </mxGeometry>
        </mxCell>
        <mxCell id="PTytaODisuTL6KH7mFgd-25" value="&lt;font style=&quot;font-size: 18px&quot;&gt;&lt;b&gt;Divisions&lt;/b&gt;&lt;/font&gt;" style="rounded=0;whiteSpace=wrap;html=1;" parent="1" vertex="1">
          <mxGeometry x="290" y="230" width="120" height="60" as="geometry" />
        </mxCell>
        <mxCell id="PTytaODisuTL6KH7mFgd-28" value="&lt;font style=&quot;font-size: 18px&quot;&gt;&lt;b&gt;Projects&lt;/b&gt;&lt;/font&gt;" style="rounded=0;whiteSpace=wrap;html=1;" parent="1" vertex="1">
          <mxGeometry x="700" y="790" width="120" height="60" as="geometry" />
        </mxCell>
        <mxCell id="Kkhly3-3A6-hrjqrPT-v-7" value="Operates" style="rhombus;whiteSpace=wrap;html=1;fontSize=18;" parent="1" vertex="1">
          <mxGeometry x="290" y="330" width="120" height="60" as="geometry" />
        </mxCell>
        <mxCell id="Kkhly3-3A6-hrjqrPT-v-8" value="" style="endArrow=none;html=1;rounded=0;fontSize=16;exitX=0.5;exitY=0;exitDx=0;exitDy=0;" parent="1" source="PTytaODisuTL6KH7mFgd-1" target="Kkhly3-3A6-hrjqrPT-v-7" edge="1">
          <mxGeometry width="50" height="50" relative="1" as="geometry">
            <mxPoint x="350" y="500" as="sourcePoint" />
            <mxPoint x="350" y="360" as="targetPoint" />
          </mxGeometry>
        </mxCell>
        <mxCell id="Kkhly3-3A6-hrjqrPT-v-12" value="Runs" style="rhombus;whiteSpace=wrap;html=1;fontSize=18;" parent="1" vertex="1">
          <mxGeometry x="590" y="450" width="120" height="60" as="geometry" />
        </mxCell>
        <mxCell id="Kkhly3-3A6-hrjqrPT-v-13" value="" style="endArrow=classic;html=1;rounded=0;entryX=1;entryY=0.5;entryDx=0;entryDy=0;exitX=0.5;exitY=0;exitDx=0;exitDy=0;" parent="1" source="Kkhly3-3A6-hrjqrPT-v-12" target="PTytaODisuTL6KH7mFgd-25" edge="1">
          <mxGeometry width="50" height="50" relative="1" as="geometry">
            <mxPoint x="460" y="460" as="sourcePoint" />
            <mxPoint x="420" y="460" as="targetPoint" />
            <Array as="points">
              <mxPoint x="650" y="260" />
            </Array>
          </mxGeometry>
        </mxCell>
        <mxCell id="Kkhly3-3A6-hrjqrPT-v-14" value="" style="endArrow=classic;html=1;rounded=0;exitX=0.5;exitY=1;exitDx=0;exitDy=0;entryX=1;entryY=0.5;entryDx=0;entryDy=0;" parent="1" source="Kkhly3-3A6-hrjqrPT-v-12" target="PTytaODisuTL6KH7mFgd-3" edge="1">
          <mxGeometry width="50" height="50" relative="1" as="geometry">
            <mxPoint x="460" y="270" as="sourcePoint" />
            <mxPoint x="410" y="720" as="targetPoint" />
            <Array as="points">
              <mxPoint x="650" y="630" />
              <mxPoint x="650" y="710" />
            </Array>
          </mxGeometry>
        </mxCell>
        <mxCell id="Kkhly3-3A6-hrjqrPT-v-16" value="" style="endArrow=none;html=1;rounded=0;entryX=0.5;entryY=1;entryDx=0;entryDy=0;exitX=0.5;exitY=0;exitDx=0;exitDy=0;" parent="1" source="PTytaODisuTL6KH7mFgd-3" target="Kkhly3-3A6-hrjqrPT-v-23" edge="1">
          <mxGeometry width="50" height="50" relative="1" as="geometry">
            <mxPoint x="360" y="460" as="sourcePoint" />
            <mxPoint x="410" y="410" as="targetPoint" />
          </mxGeometry>
        </mxCell>
        <mxCell id="Kkhly3-3A6-hrjqrPT-v-17" value="" style="endArrow=none;html=1;rounded=0;startArrow=none;entryX=1;entryY=0.75;entryDx=0;entryDy=0;" parent="1" source="PTytaODisuTL6KH7mFgd-33" edge="1" target="PTytaODisuTL6KH7mFgd-3">
          <mxGeometry width="50" height="50" relative="1" as="geometry">
            <mxPoint x="660" y="520" as="sourcePoint" />
            <mxPoint x="650" y="570" as="targetPoint" />
          </mxGeometry>
        </mxCell>
        <mxCell id="Kkhly3-3A6-hrjqrPT-v-21" value="" style="endArrow=classic;html=1;rounded=0;exitX=0.5;exitY=1;exitDx=0;exitDy=0;entryX=1;entryY=0.25;entryDx=0;entryDy=0;" parent="1" source="PTytaODisuTL6KH7mFgd-2" edge="1" target="PTytaODisuTL6KH7mFgd-3">
          <mxGeometry width="50" height="50" relative="1" as="geometry">
            <mxPoint x="450" y="435" as="sourcePoint" />
            <mxPoint x="500" y="680" as="targetPoint" />
            <Array as="points">
              <mxPoint x="520" y="685" />
            </Array>
          </mxGeometry>
        </mxCell>
        <mxCell id="Kkhly3-3A6-hrjqrPT-v-22" value="" style="endArrow=classic;html=1;rounded=0;fontSize=16;exitX=0.5;exitY=0;exitDx=0;exitDy=0;startArrow=none;entryX=0.5;entryY=1;entryDx=0;entryDy=0;" parent="1" edge="1" target="PTytaODisuTL6KH7mFgd-1" source="Kkhly3-3A6-hrjqrPT-v-23">
          <mxGeometry width="50" height="50" relative="1" as="geometry">
            <mxPoint x="440" y="550" as="sourcePoint" />
            <mxPoint x="260" y="550" as="targetPoint" />
          </mxGeometry>
        </mxCell>
        <mxCell id="Kkhly3-3A6-hrjqrPT-v-23" value="Employs" style="rhombus;whiteSpace=wrap;html=1;fontSize=18;" parent="1" vertex="1">
          <mxGeometry x="290" y="570" width="120" height="50" as="geometry" />
        </mxCell>
        <mxCell id="PTytaODisuTL6KH7mFgd-33" value="Assigned" style="rhombus;whiteSpace=wrap;html=1;fontSize=18;" parent="1" vertex="1">
          <mxGeometry x="500" y="790" width="120" height="60" as="geometry" />
        </mxCell>
        <mxCell id="Kkhly3-3A6-hrjqrPT-v-24" value="" style="endArrow=none;html=1;rounded=0;exitX=0;exitY=0.5;exitDx=0;exitDy=0;" parent="1" source="PTytaODisuTL6KH7mFgd-28" target="PTytaODisuTL6KH7mFgd-33" edge="1">
          <mxGeometry width="50" height="50" relative="1" as="geometry">
            <mxPoint x="650" y="650" as="sourcePoint" />
            <mxPoint x="650" y="570" as="targetPoint" />
          </mxGeometry>
        </mxCell>
        <mxCell id="Kkhly3-3A6-hrjqrPT-v-25" value="&lt;font style=&quot;font-size: 18px&quot;&gt;&lt;u&gt;Name&lt;/u&gt;&lt;br&gt;&lt;/font&gt;" style="ellipse;whiteSpace=wrap;html=1;" parent="1" vertex="1">
          <mxGeometry x="130" y="630" width="120" height="70" as="geometry" />
        </mxCell>
        <mxCell id="Kkhly3-3A6-hrjqrPT-v-26" value="" style="endArrow=none;html=1;rounded=0;fontSize=18;exitX=0;exitY=0.25;exitDx=0;exitDy=0;entryX=1;entryY=0.5;entryDx=0;entryDy=0;" parent="1" source="PTytaODisuTL6KH7mFgd-3" target="Kkhly3-3A6-hrjqrPT-v-25" edge="1">
          <mxGeometry width="50" height="50" relative="1" as="geometry">
            <mxPoint x="600" y="450" as="sourcePoint" />
            <mxPoint x="650" y="400" as="targetPoint" />
          </mxGeometry>
        </mxCell>
        <mxCell id="Kkhly3-3A6-hrjqrPT-v-28" value="" style="endArrow=none;html=1;rounded=0;fontSize=18;exitX=1;exitY=0.25;exitDx=0;exitDy=0;entryX=0;entryY=0.5;entryDx=0;entryDy=0;" parent="1" source="PTytaODisuTL6KH7mFgd-28" target="Kkhly3-3A6-hrjqrPT-v-29" edge="1">
          <mxGeometry width="50" height="50" relative="1" as="geometry">
            <mxPoint x="760" y="455" as="sourcePoint" />
            <mxPoint x="780" y="665" as="targetPoint" />
          </mxGeometry>
        </mxCell>
        <mxCell id="Kkhly3-3A6-hrjqrPT-v-29" value="&lt;font style=&quot;font-size: 18px&quot;&gt;&lt;u&gt;Project Title&lt;/u&gt;&lt;br&gt;&lt;/font&gt;" style="ellipse;whiteSpace=wrap;html=1;" parent="1" vertex="1">
          <mxGeometry x="870" y="750" width="120" height="70" as="geometry" />
        </mxCell>
        <mxCell id="Kkhly3-3A6-hrjqrPT-v-31" value="" style="endArrow=none;html=1;rounded=0;fontSize=18;exitX=1;exitY=0.75;exitDx=0;exitDy=0;entryX=0;entryY=0;entryDx=0;entryDy=0;" parent="1" source="PTytaODisuTL6KH7mFgd-28" target="Kkhly3-3A6-hrjqrPT-v-32" edge="1">
          <mxGeometry width="50" height="50" relative="1" as="geometry">
            <mxPoint x="760" y="675" as="sourcePoint" />
            <mxPoint x="790" y="720" as="targetPoint" />
          </mxGeometry>
        </mxCell>
        <mxCell id="Kkhly3-3A6-hrjqrPT-v-32" value="&lt;font style=&quot;font-size: 18px&quot;&gt;Deadline&lt;br&gt;&lt;/font&gt;" style="ellipse;whiteSpace=wrap;html=1;" parent="1" vertex="1">
          <mxGeometry x="870" y="840" width="120" height="70" as="geometry" />
        </mxCell>
        <mxCell id="Kkhly3-3A6-hrjqrPT-v-44" value="&lt;font style=&quot;font-size: 18px&quot;&gt;&lt;u&gt;Name&lt;/u&gt;&lt;br&gt;&lt;/font&gt;" style="ellipse;whiteSpace=wrap;html=1;" parent="1" vertex="1">
          <mxGeometry x="130" y="435" width="120" height="70" as="geometry" />
        </mxCell>
        <mxCell id="Kkhly3-3A6-hrjqrPT-v-45" value="" style="endArrow=none;html=1;rounded=0;fontSize=18;exitX=0;exitY=0.5;exitDx=0;exitDy=0;entryX=1;entryY=0.5;entryDx=0;entryDy=0;" parent="1" source="PTytaODisuTL6KH7mFgd-1" target="Kkhly3-3A6-hrjqrPT-v-44" edge="1">
          <mxGeometry width="50" height="50" relative="1" as="geometry">
            <mxPoint x="190" y="420" as="sourcePoint" />
            <mxPoint x="600" y="355" as="targetPoint" />
          </mxGeometry>
        </mxCell>
        <mxCell id="Kkhly3-3A6-hrjqrPT-v-46" value="&lt;font style=&quot;font-size: 18px&quot;&gt;&lt;u&gt;Name&lt;/u&gt;&lt;br&gt;&lt;/font&gt;" style="ellipse;whiteSpace=wrap;html=1;" parent="1" vertex="1">
          <mxGeometry x="130" y="225" width="120" height="70" as="geometry" />
        </mxCell>
        <mxCell id="Kkhly3-3A6-hrjqrPT-v-47" value="" style="endArrow=none;html=1;rounded=0;fontSize=18;exitX=0;exitY=0.5;exitDx=0;exitDy=0;" parent="1" source="PTytaODisuTL6KH7mFgd-25" edge="1">
          <mxGeometry width="50" height="50" relative="1" as="geometry">
            <mxPoint x="470" y="280" as="sourcePoint" />
            <mxPoint x="250" y="260" as="targetPoint" />
          </mxGeometry>
        </mxCell>
        <mxCell id="epMb1HLacHH9PRk7wU-e-3" value="&lt;font style=&quot;font-size: 18px&quot;&gt;&lt;u&gt;Job Title&lt;/u&gt;&lt;br&gt;&lt;/font&gt;" style="ellipse;whiteSpace=wrap;html=1;" vertex="1" parent="1">
          <mxGeometry x="130" y="720" width="120" height="70" as="geometry" />
        </mxCell>
        <mxCell id="epMb1HLacHH9PRk7wU-e-5" value="" style="endArrow=none;html=1;rounded=0;fontSize=18;exitX=0;exitY=0.75;exitDx=0;exitDy=0;entryX=1;entryY=0.5;entryDx=0;entryDy=0;" edge="1" parent="1" target="epMb1HLacHH9PRk7wU-e-3" source="PTytaODisuTL6KH7mFgd-3">
          <mxGeometry width="50" height="50" relative="1" as="geometry">
            <mxPoint x="150" y="270" as="sourcePoint" />
            <mxPoint x="121.91695175100017" y="315.3628305169284" as="targetPoint" />
          </mxGeometry>
        </mxCell>
        <mxCell id="epMb1HLacHH9PRk7wU-e-6" value="&lt;font style=&quot;font-size: 18px&quot;&gt;&lt;b&gt;Rovers&lt;br&gt;&lt;/b&gt;&lt;/font&gt;" style="rounded=0;whiteSpace=wrap;html=1;" vertex="1" parent="1">
          <mxGeometry x="290" y="875" width="120" height="100" as="geometry" />
        </mxCell>
        <mxCell id="epMb1HLacHH9PRk7wU-e-7" value="&lt;font style=&quot;font-size: 18px&quot;&gt;&lt;u&gt;Name&lt;/u&gt;&lt;br&gt;&lt;/font&gt;" style="ellipse;whiteSpace=wrap;html=1;" vertex="1" parent="1">
          <mxGeometry x="130" y="840" width="120" height="70" as="geometry" />
        </mxCell>
        <mxCell id="epMb1HLacHH9PRk7wU-e-8" value="" style="endArrow=none;html=1;rounded=0;fontSize=18;exitX=0;exitY=0.25;exitDx=0;exitDy=0;entryX=1;entryY=0.5;entryDx=0;entryDy=0;" edge="1" parent="1" target="epMb1HLacHH9PRk7wU-e-7">
          <mxGeometry width="50" height="50" relative="1" as="geometry">
            <mxPoint x="290" y="895" as="sourcePoint" />
            <mxPoint x="650" y="610" as="targetPoint" />
          </mxGeometry>
        </mxCell>
        <mxCell id="epMb1HLacHH9PRk7wU-e-9" value="&lt;font style=&quot;font-size: 18px&quot;&gt;&lt;u&gt;Job Title&lt;/u&gt;&lt;br&gt;&lt;/font&gt;" style="ellipse;whiteSpace=wrap;html=1;" vertex="1" parent="1">
          <mxGeometry x="130" y="930" width="120" height="70" as="geometry" />
        </mxCell>
        <mxCell id="epMb1HLacHH9PRk7wU-e-10" value="" style="endArrow=none;html=1;rounded=0;fontSize=18;exitX=0;exitY=0.75;exitDx=0;exitDy=0;entryX=1;entryY=0.5;entryDx=0;entryDy=0;" edge="1" parent="1" target="epMb1HLacHH9PRk7wU-e-9">
          <mxGeometry width="50" height="50" relative="1" as="geometry">
            <mxPoint x="290" y="945" as="sourcePoint" />
            <mxPoint x="121.91695175100017" y="525.3628305169284" as="targetPoint" />
          </mxGeometry>
        </mxCell>
        <mxCell id="epMb1HLacHH9PRk7wU-e-11" value="" style="endArrow=none;html=1;rounded=0;startArrow=none;entryX=1;entryY=0.5;entryDx=0;entryDy=0;" edge="1" parent="1" source="PTytaODisuTL6KH7mFgd-33" target="epMb1HLacHH9PRk7wU-e-6">
          <mxGeometry width="50" height="50" relative="1" as="geometry">
            <mxPoint x="520" y="790" as="sourcePoint" />
            <mxPoint x="420" y="720" as="targetPoint" />
          </mxGeometry>
        </mxCell>
      </root>
    </mxGraphModel>
  </diagram>
</mxfile>
